<svg width="33" height="33" viewBox="0 0 33 33" fill="none" xmlns="http://www.w3.org/2000/svg">
<path d="M17.3493 24.5228V16.7813H19.946L20.3355 13.7951H17.3493V12.091C17.3493 11.6149 17.3764 11.3174 17.4305 11.1983C17.4305 11.1659 17.4737 11.0685 17.5603 10.9062C17.7551 10.5492 18.2582 10.3706 19.0696 10.3706H20.4492V7.69278C19.7242 7.60622 18.956 7.56294 18.1446 7.56294C16.5757 7.56294 15.4613 8.13638 14.8013 9.28327C14.4226 9.92163 14.2333 10.6574 14.2333 11.4905V13.7951H11.6528V16.7813H14.2333V24.5228H17.3493ZM16.051 32.1019C13.9087 32.1019 11.8638 31.6962 9.91622 30.8847C7.96868 30.0841 6.23212 28.9209 4.70655 27.3954C3.18098 25.8698 2.01246 24.1332 1.20098 22.1857C0.400327 20.2382 0 18.1933 0 16.051C0 13.9087 0.400327 11.8638 1.20098 9.91622C2.01246 7.96868 3.18098 6.23212 4.70655 4.70655C6.23212 3.18098 7.96868 2.01787 9.91622 1.21721C11.8638 0.405737 13.9087 0 16.051 0C18.1933 0 20.2382 0.405737 22.1857 1.21721C24.1332 2.01787 25.8698 3.18098 27.3954 4.70655C28.9209 6.23212 30.0841 7.96868 30.8847 9.91622C31.6962 11.8638 32.1019 13.9087 32.1019 16.051C32.1019 18.1933 31.6962 20.2382 30.8847 22.1857C30.0841 24.1332 28.9209 25.8698 27.3954 27.3954C25.8698 28.9209 24.1332 30.0841 22.1857 30.8847C20.2382 31.6962 18.1933 32.1019 16.051 32.1019Z" fill="white"/>
</svg>
