<svg width="33" height="33" viewBox="0 0 33 33" fill="none" xmlns="http://www.w3.org/2000/svg">
<path d="M16.2541 32.1019C14.1118 32.1019 12.0669 31.6962 10.1193 30.8847C8.1718 30.0841 6.43525 28.9209 4.90968 27.3954C3.3841 25.8698 2.21558 24.1332 1.40411 22.1857C0.603452 20.2382 0.203125 18.1933 0.203125 16.051C0.203125 13.9087 0.603452 11.8638 1.40411 9.91622C2.21558 7.96868 3.3841 6.23212 4.90968 4.70655C6.43525 3.18098 8.1718 2.01787 10.1193 1.21721C12.0669 0.405737 14.1118 0 16.2541 0C18.3964 0 20.4413 0.405737 22.3888 1.21721C24.3364 2.01787 26.0729 3.18098 27.5985 4.70655C29.1241 6.23212 30.2872 7.96868 31.0878 9.91622C31.8993 11.8638 32.3051 13.9087 32.3051 16.051C32.3051 18.1933 31.8993 20.2382 31.0878 22.1857C30.2872 24.1332 29.1241 25.8698 27.5985 27.3954C26.0729 28.9209 24.3364 30.0841 22.3888 30.8847C20.4413 31.6962 18.3964 32.1019 16.2541 32.1019ZM16.2541 8.06606C15.5184 8.06606 14.9611 8.06606 14.5825 8.06606C14.2146 8.06606 13.9116 8.07147 13.6736 8.08228C13.4356 8.0931 13.1813 8.10392 12.9108 8.11474C12.0777 8.15802 11.4231 8.28245 10.947 8.48802C10.4277 8.68278 9.95164 8.99655 9.51885 9.42933C9.08606 9.86212 8.77229 10.3382 8.57754 10.8575C8.37197 11.3336 8.24754 11.9882 8.20426 12.8213C8.19344 13.0918 8.18262 13.346 8.1718 13.5841C8.1718 13.8113 8.16639 14.1142 8.15557 14.4929C8.15557 14.8716 8.15557 15.4234 8.15557 16.1483C8.15557 16.8841 8.15557 17.4413 8.15557 17.82C8.16639 18.1987 8.1718 18.507 8.1718 18.7451C8.18262 18.9723 8.19344 19.2211 8.20426 19.4916C8.24754 20.3247 8.37197 20.9793 8.57754 21.4554C8.77229 21.9747 9.08606 22.4508 9.51885 22.8836C9.95164 23.3164 10.4277 23.6301 10.947 23.8249C11.4231 24.0305 12.0777 24.1549 12.9108 24.1982C13.1813 24.209 13.4302 24.2198 13.6574 24.2306C13.8954 24.2414 14.2038 24.2469 14.5825 24.2469C14.9611 24.2469 15.5129 24.2469 16.2379 24.2469C16.9736 24.2469 17.5254 24.2469 17.8933 24.2469C18.272 24.2469 18.5803 24.2414 18.8183 24.2306C19.0564 24.2198 19.3106 24.209 19.5811 24.1982C20.4142 24.1549 21.0688 24.0305 21.5449 23.8249C22.0642 23.6301 22.5403 23.3164 22.9731 22.8836C23.4059 22.4508 23.7197 21.9747 23.9144 21.4554C24.12 20.9793 24.2444 20.3247 24.2877 19.4916C24.2985 19.2211 24.3039 18.9723 24.3039 18.7451C24.3147 18.507 24.3201 18.1987 24.3201 17.82C24.331 17.4413 24.3364 16.8841 24.3364 16.1483C24.3364 15.4234 24.331 14.8716 24.3201 14.4929C24.3201 14.1142 24.3147 13.8113 24.3039 13.5841C24.3039 13.346 24.2985 13.0918 24.2877 12.8213C24.2444 11.9882 24.12 11.3336 23.9144 10.8575C23.7197 10.3382 23.4059 9.86212 22.9731 9.42933C22.5403 8.99655 22.0642 8.68278 21.5449 8.48802C21.058 8.28245 20.4034 8.15802 19.5811 8.11474C19.3106 8.10392 19.0564 8.0931 18.8183 8.08228C18.5803 8.07147 18.272 8.06606 17.8933 8.06606C17.5254 8.06606 16.979 8.06606 16.2541 8.06606ZM15.5238 9.52671C15.6644 9.52671 15.8159 9.52671 15.9782 9.52671C16.0647 9.52671 16.1567 9.52671 16.2541 9.52671C16.9682 9.52671 17.5092 9.52671 17.877 9.52671C18.2449 9.52671 18.5424 9.53212 18.7697 9.54294C18.9969 9.55376 19.2457 9.56458 19.5162 9.5754C20.2736 9.6295 20.7767 9.72146 21.0256 9.8513C21.3826 9.98114 21.691 10.1813 21.9506 10.4518C22.2211 10.7115 22.4213 11.0198 22.5511 11.3769C22.681 11.6257 22.7729 12.1288 22.827 12.8862C22.8379 13.1567 22.8487 13.4056 22.8595 13.6328C22.8703 13.86 22.8757 14.1575 22.8757 14.5254C22.8757 14.8933 22.8757 15.4342 22.8757 16.1483C22.8757 16.8733 22.8757 17.4197 22.8757 17.7875C22.8757 18.1554 22.8703 18.4529 22.8595 18.6801C22.8487 18.9074 22.8379 19.1562 22.827 19.4267C22.7729 20.1733 22.681 20.671 22.5511 20.9198C22.4213 21.2769 22.2211 21.5906 21.9506 21.8611C21.691 22.1316 21.3826 22.3318 21.0256 22.4616C20.7767 22.5914 20.2736 22.6834 19.5162 22.7375C19.2457 22.7483 18.9969 22.7592 18.7697 22.77C18.5424 22.77 18.2449 22.7754 17.877 22.7862C17.5092 22.7862 16.9682 22.7862 16.2541 22.7862C15.5292 22.7862 14.9828 22.7862 14.6149 22.7862C14.247 22.7754 13.9495 22.77 13.7223 22.77C13.4951 22.7592 13.2462 22.7483 12.9757 22.7375C12.2292 22.6834 11.7315 22.5914 11.4826 22.4616C11.1256 22.321 10.8118 22.1208 10.5413 21.8611C10.2708 21.5906 10.0707 21.2769 9.94082 20.9198C9.81098 20.671 9.71902 20.1733 9.66492 19.4267C9.6541 19.1562 9.64328 18.9074 9.63246 18.6801C9.62164 18.4529 9.61623 18.1554 9.61623 17.7875C9.61623 17.4197 9.61623 16.8733 9.61623 16.1483C9.61623 15.4342 9.61623 14.8933 9.61623 14.5254C9.61623 14.1575 9.62164 13.86 9.63246 13.6328C9.64328 13.4056 9.6541 13.1567 9.66492 12.8862C9.71902 12.1288 9.81098 11.6257 9.94082 11.3769C10.0707 11.0198 10.2708 10.7115 10.5413 10.4518C10.8118 10.1813 11.1256 9.98114 11.4826 9.8513C11.7315 9.72146 12.2292 9.6295 12.9757 9.5754C13.2138 9.55376 13.4302 9.54294 13.6249 9.54294C13.8305 9.53212 14.0739 9.52671 14.3552 9.52671C14.6365 9.52671 15.0261 9.52671 15.5238 9.52671ZM20.5711 10.8738C20.3006 10.8738 20.068 10.9711 19.8733 11.1659C19.6893 11.3498 19.5974 11.5716 19.5974 11.8313C19.5974 12.1018 19.6893 12.3344 19.8733 12.5292C20.068 12.7131 20.3006 12.8051 20.5711 12.8051C20.8308 12.8051 21.0526 12.7131 21.2365 12.5292C21.4313 12.3344 21.5287 12.1018 21.5287 11.8313C21.5287 11.5716 21.4367 11.3498 21.2528 11.1659C21.0688 10.9711 20.8416 10.8738 20.5711 10.8738ZM16.2541 11.9936C15.1072 11.9936 14.128 12.3993 13.3166 13.2108C12.5051 14.0223 12.0993 15.0015 12.0993 16.1483C12.0993 17.306 12.5051 18.2906 13.3166 19.1021C14.128 19.9028 15.1072 20.3031 16.2541 20.3031C17.401 20.3031 18.3802 19.9028 19.1916 19.1021C20.0031 18.2906 20.4088 17.306 20.4088 16.1483C20.4088 15.0015 20.0031 14.0223 19.1916 13.2108C18.3802 12.3993 17.401 11.9936 16.2541 11.9936ZM16.2541 13.4542C16.9898 13.4542 17.6228 13.7193 18.1529 14.2495C18.6831 14.7797 18.9482 15.4126 18.9482 16.1483C18.9482 16.8949 18.6831 17.5333 18.1529 18.0634C17.6228 18.5936 16.9898 18.8587 16.2541 18.8587C15.5075 18.8587 14.8692 18.5936 14.339 18.0634C13.8088 17.5333 13.5438 16.8949 13.5438 16.1483C13.5438 15.4126 13.8088 14.7797 14.339 14.2495C14.8692 13.7193 15.5075 13.4542 16.2541 13.4542Z" fill="white"/>
</svg>
