<svg width="33" height="33" viewBox="0 0 33 33" fill="none" xmlns="http://www.w3.org/2000/svg">
<path d="M17.2015 14.6877C17.2015 14.6552 17.2178 14.639 17.2502 14.639V14.6877H17.2015ZM12.073 13.2108H8.72974V23.2082H12.073V13.2108ZM10.4176 11.8151C10.9694 11.8151 11.4238 11.6528 11.7809 11.3282C12.1379 11.0036 12.3165 10.6033 12.3165 10.1272C12.2732 9.61868 12.0838 9.20753 11.7484 8.89376C11.413 8.57999 10.9856 8.4231 10.4663 8.4231C9.89286 8.4231 9.42761 8.57999 9.07056 8.89376C8.72433 9.20753 8.55122 9.61868 8.55122 10.1272C8.55122 10.6033 8.71352 11.0036 9.03811 11.3282C9.37351 11.6528 9.83335 11.8151 10.4176 11.8151ZM24.0504 17.4954C24.0504 15.9374 23.6933 14.7959 22.9792 14.071C22.2651 13.346 21.3563 12.9836 20.2527 12.9836C19.3438 12.9836 18.673 13.1729 18.2402 13.5516C17.8074 13.9303 17.4774 14.2928 17.2502 14.639V13.2108H13.9394V18.5665V23.2082H17.2502V17.6252C17.2502 17.4846 17.2502 17.3439 17.2502 17.2033C17.2502 17.0518 17.2773 16.9219 17.3314 16.8137C17.4612 16.5108 17.6614 16.2349 17.9319 15.986C18.2132 15.7264 18.5919 15.5965 19.0679 15.5965C19.663 15.5965 20.085 15.8129 20.3338 16.2457C20.5827 16.6677 20.7071 17.2141 20.7071 17.8849V23.2082H24.0504V17.4954ZM16.3576 32.1019C14.2153 32.1019 12.1704 31.6962 10.2229 30.8847C8.27532 30.0841 6.53876 28.9209 5.01319 27.3954C3.48762 25.8698 2.3191 24.1332 1.50762 22.1857C0.706968 20.2382 0.306641 18.1933 0.306641 16.051C0.306641 13.9087 0.706968 11.8638 1.50762 9.91622C2.3191 7.96868 3.48762 6.23212 5.01319 4.70655C6.53876 3.18098 8.27532 2.01787 10.2229 1.21721C12.1704 0.405737 14.2153 0 16.3576 0C18.4999 0 20.5448 0.405737 22.4924 1.21721C24.4399 2.01787 26.1764 3.18098 27.702 4.70655C29.2276 6.23212 30.3907 7.96868 31.1914 9.91622C32.0028 11.8638 32.4086 13.9087 32.4086 16.051C32.4086 18.1933 32.0028 20.2382 31.1914 22.1857C30.3907 24.1332 29.2276 25.8698 27.702 27.3954C26.1764 28.9209 24.4399 30.0841 22.4924 30.8847C20.5448 31.6962 18.4999 32.1019 16.3576 32.1019Z" fill="white"/>
</svg>
