<svg width="33" height="33" viewBox="0 0 33 33" fill="none" xmlns="http://www.w3.org/2000/svg">
<path d="M23.0501 17.6252C22.4225 19.6485 21.0971 21.1092 19.0738 22.0072C18.1866 22.4075 17.2453 22.6077 16.2499 22.6077C16.0011 22.6077 15.7522 22.5914 15.5033 22.559C14.5512 22.4508 13.5342 22.0775 12.4522 21.4392L9.79057 22.2831C9.82303 22.1749 10.0286 21.5473 10.4073 20.4005L10.667 19.7513C10.6561 19.7513 10.4993 19.5078 10.1963 19.021C9.74188 18.177 9.46598 17.2844 9.3686 16.3431C9.33614 16.0834 9.31991 15.8183 9.31991 15.5478C9.31991 13.2757 10.2991 11.4256 12.2574 9.99736C13.3178 9.23999 14.4809 8.82343 15.7468 8.74769C15.9415 8.73687 16.1309 8.73146 16.3148 8.73146C18.4679 8.73146 20.2315 9.55917 21.6056 11.2146C22.7525 12.5346 23.326 13.979 23.326 15.5478C23.326 16.2078 23.234 16.9003 23.0501 17.6252ZM24.6243 15.1583C24.4187 13.0269 23.6019 11.247 22.1737 9.81884C20.7887 8.4231 19.0035 7.62786 16.8179 7.43311H15.8117C13.5179 7.66032 11.7002 8.49343 10.3586 9.93245C8.81139 11.5987 8.02155 13.4867 7.98909 15.5965C7.98909 16.8841 8.31368 18.1716 8.96286 19.4592C9.02778 19.6323 9.06024 19.7946 9.06024 19.946C9.06024 20.13 9.03319 20.3031 8.97909 20.4654C8.08106 23.0513 7.63204 24.3551 7.63204 24.3767L7.69696 24.2793C7.70778 24.3226 7.72401 24.3442 7.74565 24.3442C8.31909 24.1387 9.07647 23.8898 10.0178 23.5977C11.2404 23.2082 11.9978 22.9647 12.2899 22.8673C13.664 23.5706 14.9948 23.9223 16.2824 23.9223H16.542C18.0676 23.8573 19.4309 23.457 20.6319 22.7213C23.0122 21.2498 24.343 19.0696 24.6243 16.1808V15.1583ZM20.4858 17.5765C20.3668 17.4683 20.0638 17.2952 19.5769 17.0572C18.9819 16.7651 18.6248 16.619 18.5058 16.619C18.4192 16.619 18.2407 16.7867 17.9702 17.1221C17.6997 17.4683 17.5212 17.6469 17.4347 17.6577H17.4022C17.2399 17.6577 16.9153 17.5224 16.4284 17.2519C15.8874 16.9598 15.3843 16.5162 14.9191 15.9211C14.5512 15.4342 14.3673 15.1259 14.3673 14.996C14.3673 14.996 14.4917 14.8338 14.7406 14.5092C14.9461 14.2928 15.0489 14.1034 15.0489 13.9411C15.0489 13.8979 14.9137 13.5462 14.6432 12.8862C14.3835 12.3128 14.2104 12.0044 14.1238 11.9611C14.0156 11.9179 13.8912 11.8962 13.7506 11.8962C13.6099 11.8962 13.4638 11.907 13.3124 11.9287C12.6091 12.1234 12.2574 12.7618 12.2574 13.8438C12.2574 14.4605 12.582 15.2341 13.2312 16.1646C14.1401 17.4305 15.1247 18.3123 16.185 18.81C16.9965 19.1995 17.7051 19.4429 18.311 19.5403H18.5058C18.8412 19.5403 19.2037 19.4429 19.5932 19.2482C20.1991 18.9344 20.502 18.4475 20.502 17.7875C20.502 17.7226 20.4966 17.6523 20.4858 17.5765ZM16.1525 32.1019C14.0102 32.1019 11.9653 31.6962 10.0178 30.8847C8.07024 30.0841 6.33369 28.9209 4.80811 27.3954C3.28254 25.8698 2.11402 24.1332 1.30254 22.1857C0.50189 20.2382 0.101562 18.1933 0.101562 16.051C0.101562 13.9087 0.50189 11.8638 1.30254 9.91622C2.11402 7.96868 3.28254 6.23212 4.80811 4.70655C6.33369 3.18098 8.07024 2.01787 10.0178 1.21721C11.9653 0.405737 14.0102 0 16.1525 0C18.2948 0 20.3397 0.405737 22.2873 1.21721C24.2348 2.01787 25.9714 3.18098 27.4969 4.70655C29.0225 6.23212 30.1856 7.96868 30.9863 9.91622C31.7978 11.8638 32.2035 13.9087 32.2035 16.051C32.2035 18.1933 31.7978 20.2382 30.9863 22.1857C30.1856 24.1332 29.0225 25.8698 27.4969 27.3954C25.9714 28.9209 24.2348 30.0841 22.2873 30.8847C20.3397 31.6962 18.2948 32.1019 16.1525 32.1019Z" fill="white"/>
</svg>
