<svg width="41" height="21" viewBox="0 0 41 21" fill="none" xmlns="http://www.w3.org/2000/svg">
<path d="M10.623 9.19563L11.7195 12.5704H15.268L12.3972 14.6561L13.4938 18.0308L10.623 15.9451L7.75228 18.0308L8.8488 14.6561L5.97807 12.5704H9.52649L10.623 9.19563Z" fill="#FFC451"/>
<path d="M30.5098 9.19563L29.4133 12.5704H25.8649L28.7356 14.6561L27.6391 18.0308L30.5098 15.9451L33.3805 18.0308L32.284 14.6561L35.1548 12.5704H31.6063L30.5098 9.19563Z" fill="#FFC451"/>
<path d="M5.14495 0.289795L6.24147 3.66455H9.78989L6.91916 5.75026L8.01568 9.12501L5.14495 7.0393L2.27421 9.12501L3.37074 5.75026L0.5 3.66455H4.04842L5.14495 0.289795Z" fill="#FFC451"/>
<path d="M35.8551 0.289795L34.7585 3.66455H31.2101L34.0808 5.75026L32.9843 9.12501L35.8551 7.0393L38.7258 9.12501L37.6293 5.75026L40.5 3.66455H36.9516L35.8551 0.289795Z" fill="#FFC451"/>
<path d="M20.7418 11.875L21.8383 15.2498H25.3868L22.516 17.3355L23.6125 20.7102L20.7418 18.6245L17.8711 20.7102L18.9676 17.3355L16.0969 15.2498H19.6453L20.7418 11.875Z" fill="#FFC451"/>
</svg>
